<?xml version="1.0" encoding="UTF-8"?>
<svg id="a" data-name="Layer 1" xmlns="http://www.w3.org/2000/svg" viewBox="0 0 212.19 243.14">
  <defs>
    <style>
      .b {
        fill: #fff;
      }
    </style>
  </defs>
  <path class="b" d="m106.81,243.14c-48.54,0-88.63-25.27-101.73-76.39-7.4-28.85-5.63-61.41-1.51-82.25C8.19,61.1,23.23,28.55,50.39,13.83,78.96-1.66,113.12-1.97,133.69,2.47c25.99,5.61,44.79,16.81,59.17,35.26,15.21,19.5,19.18,39.2,19.34,40.03l-20.36,3.97,10.18-1.99-10.17,2.03c-.03-.16-3.33-15.87-15.35-31.29-11.38-14.59-25.93-23.15-47.19-27.73-18.46-3.99-46.96-2.65-69.03,9.31-22.28,12.08-33.34,41.17-36.36,56.46-3.51,17.76-5.29,47.56,1.26,73.07,6.56,25.58,21.03,43.49,43.01,53.24,24.92,11.05,54.93,8.21,73.07,2.42,18.04-5.76,34.48-22.02,38.23-37.83,4.84-20.36-2.73-36.04-18.72-45.25-3.29,22.42-13.85,39.18-30.03,46.57-24.13,11.02-55.71,2.11-66.27-18.69-5.82-11.47-5.53-25.35.76-36.22,4.3-7.43,15.39-20.11,41.37-21.49,12.29-.65,23.5-.16,33.6,1.47-2.05-12.44-8.6-27.55-28.22-28.3-17.88-.68-26.4,6.96-30.4,13.49l-17.68-10.84c4.55-7.42,18.4-24.55,48.87-23.38,28.34,1.08,47.07,22.09,48.9,54.84,31.06,12.56,45.56,40.74,38,72.59-5.47,23.04-26.9,44.75-52.1,52.79-11.24,3.59-25.52,6.12-40.75,6.12Zm10.18-118.34c-12.17,0-27.69.82-33.81,11.41-2.81,4.87-2.9,11.17-.22,16.46,5.42,10.69,25.55,15.42,39.15,9.21,10.5-4.8,17.11-17.45,18.65-34.92-7.08-1.44-15.01-2.16-23.78-2.16Z"/>
</svg>