<?xml version="1.0" encoding="UTF-8"?>
<svg id="a" data-name="Layer 1" xmlns="http://www.w3.org/2000/svg" xmlns:xlink="http://www.w3.org/1999/xlink" viewBox="0 0 360 80">
  <defs>
    <style>
      .j {
        fill: url(#h);
      }

      .k {
        fill: url(#i);
      }

      .l {
        fill: #ee2c5d;
      }

      .m {
        fill: url(#f);
      }

      .n {
        fill: url(#g);
      }

      .o {
        fill: url(#e);
      }

      .p {
        fill: url(#d);
      }

      .q {
        fill: url(#b);
      }

      .r {
        fill: url(#c);
      }
    </style>
    <linearGradient id="b" x1="76.99" y1="13.3" x2="27.11" y2="67.46" gradientUnits="userSpaceOnUse">
      <stop offset="0" stop-color="#fcb017"/>
      <stop offset=".33" stop-color="#ee2b5d"/>
      <stop offset=".67" stop-color="#c04198"/>
      <stop offset="1" stop-color="#8152a1"/>
    </linearGradient>
    <linearGradient id="c" x1="158.92" y1="68.43" x2="158.92" y2="29.72" gradientUnits="userSpaceOnUse">
      <stop offset="0" stop-color="#fff"/>
      <stop offset="1" stop-color="#f1f2f2"/>
    </linearGradient>
    <linearGradient id="d" x1="225" y1="68.92" x2="225" y2="12.17" gradientUnits="userSpaceOnUse">
      <stop offset="0" stop-color="#fff"/>
      <stop offset="1" stop-color="#f1f2f2"/>
    </linearGradient>
    <linearGradient id="e" x1="267.75" y1="68.87" x2="267.75" y2="12.12" xlink:href="#d"/>
    <linearGradient id="f" x1="324.4" y1="68.7" x2="324.4" y2="29.54" xlink:href="#d"/>
    <linearGradient id="g" x1="118.38" y1="68.43" x2="118.38" y2="14.29" xlink:href="#d"/>
    <linearGradient id="h" x1="296.48" y1="68.41" x2="296.48" y2="12.73" xlink:href="#d"/>
    <linearGradient id="i" x1="194.91" y1="68.44" x2="194.91" y2="30.14" xlink:href="#d"/>
  </defs>
  <path class="q" d="m51.85,76.83c-14.5,0-26.47-7.55-30.38-22.82-2.21-8.62-1.68-18.34-.45-24.56,1.38-6.99,5.87-16.71,13.99-21.11,8.53-4.62,18.73-4.72,24.88-3.39,7.76,1.68,13.38,5.02,17.67,10.53,4.54,5.82,5.73,11.71,5.78,11.96l-6.08,1.19,3.04-.59-3.04.6s-.99-4.74-4.58-9.35c-3.4-4.36-7.74-6.91-14.09-8.28-5.51-1.19-14.03-.79-20.62,2.78-6.66,3.61-9.96,12.3-10.86,16.86-1.05,5.3-1.58,14.2.37,21.82,1.96,7.64,6.28,12.99,12.85,15.9,7.44,3.3,16.41,2.45,21.82.72,5.39-1.72,10.3-6.58,11.42-11.3,1.44-6.08-.82-10.76-5.59-13.52-.98,6.7-4.14,11.7-8.97,13.91-7.21,3.29-16.64.63-19.79-5.58-1.74-3.43-1.65-7.57.23-10.82,1.28-2.22,4.6-6.01,12.36-6.42,3.67-.19,7.02-.05,10.04.44-.61-3.72-2.57-8.23-8.43-8.45-5.34-.2-7.88,2.08-9.08,4.03l-5.28-3.24c1.36-2.22,5.5-7.33,14.6-6.98,8.46.32,14.06,6.6,14.6,16.38,9.28,3.75,13.61,12.17,11.35,21.68-1.63,6.88-8.03,13.37-15.56,15.77-3.36,1.07-7.62,1.83-12.17,1.83Zm3.04-35.34c-3.64,0-8.27.24-10.1,3.41-.84,1.45-.87,3.34-.06,4.92,1.62,3.19,7.63,4.61,11.69,2.75,3.14-1.43,5.11-5.21,5.57-10.43-2.11-.43-4.48-.65-7.1-.65Z"/>
  <g>
    <path class="r" d="m169.44,49.78c1.74-5.19,3.41-10.19,5.09-15.18.47-1.41.93-2.82,1.44-4.21.09-.25.4-.61.61-.62,3.45-.04,6.9-.03,10.52-.03-.34,1.02-.64,1.91-.95,2.81-3.4,9.83-6.79,19.65-10.19,29.48-.62,1.8-1.42,4.19-2.03,6.07-.07.21-.26.34-.47.34h-8.3c-.22,0-.41-.14-.48-.35-1.77-5.76-3.71-12.14-5.49-17.87-.07-.22-.16-.43-.31-.85-.39,1.17-.74,2.16-1.06,3.16-1.56,4.97-3.29,10.57-4.88,15.56-.07.21-.26.34-.48.34h-8.03c-.21,0-.4-.14-.47-.34-4.41-12.77-8.78-25.43-13.22-38.28.6-.04.99-.02,1.5-.03l8.05-.03c1.06.01,1.43.08,1.7.88,2.04,6.12,4.12,12.23,6.19,18.34.07.22.16.43.32.85.53-1.69,1.01-3.2,1.47-4.71,1.47-4.85,2.95-9.69,4.39-14.55.15-.52.63-.86,1.17-.85,2.26.05,4.52.04,6.79,0,.65-.01.88.2,1.08.83,1.89,6.17,3.82,12.32,5.75,18.48.06.18.14.36.3.75Z"/>
    <path class="p" d="m215.64,12.67v18.64c2.14-.6,4.2-1.36,6.33-1.76,8.1-1.51,17.03,3.07,20.67,10.45,3.01,6.12,3.02,12.25-.06,18.33-3.69,7.27-12.13,11.57-20.18,10.39-7.28-1.07-12.43-5-15.56-11.57-1.3-2.74-1.72-5.7-1.73-8.71-.01-10.6,0-21.21-.02-31.81,0-.2.12-.38.31-.46l9.54-3.96c.33-.14.69.11.69.46Zm14.62,28.81c-6.6-4.66-14.5.62-14.64,7.22-.11,5.34,3.97,9.69,9.16,9.78,5.65.09,10.25-4.74,9.54-10.46-.33-2.64-1.88-5-4.05-6.54Z"/>
    <path class="o" d="m258.35,12.62v18.81c1.72-.56,3.34-1.27,5.04-1.62,7.26-1.53,13.59.35,18.72,5.69,5.19,5.4,6.56,11.88,4.74,19.06-1.83,7.2-8.73,13.22-16.13,14.12-8.01.97-14.49-1.7-19.25-8.24-2.54-3.49-3.59-7.48-3.58-11.77.01-10.71,0-21.41.02-32.12,0-.2.12-.38.31-.46l9.45-3.92c.33-.14.69.11.69.46Zm18.77,36.56c.07-5.17-4.12-9.4-9.39-9.47-5.81-.07-10.62,5.57-9.13,11.69.96,3.92,4.47,6.84,8.49,7.07,5.47.31,9.95-3.89,10.02-9.29Z"/>
    <path class="m" d="m343.7,54.16h-26.87c-.17,0-.29.18-.2.33,2.16,3.78,9.17,6.29,14.59,1.34.09-.08.22-.09.3,0,.93.88,5.94,5.64,6.89,6.54.09.08.09.22.01.31-5.14,5.88-15.17,8.14-23.39,3.68-8.69-4.71-12.36-14.81-9.21-23.64,3.59-10.05,13.65-14.96,23.17-12.58,9.82,2.45,16.23,10.77,14.94,23.82-.01.12-.11.21-.23.21Zm-11.76-10.15c.19,0,.29-.22.18-.37-2.09-2.72-4.73-4.09-8.07-3.98-3.08.1-5.52,1.46-7.42,3.99-.11.15,0,.37.18.37h15.13Z"/>
    <path class="n" d="m138.66,14.29v10.34h-14.91v43.57c0,.13-.1.23-.23.23h-10.5c-.13,0-.23-.1-.23-.23V24.64h-14.7v-10.35h40.57Z"/>
    <path class="j" d="m291.22,17.22c.02,16.14.02,48.02.02,50.97,0,.13.1.22.23.22h10.06c.13,0,.23-.1.23-.23V13.23c0-.36-.36-.6-.69-.46-2.07.87-8.12,3.41-9.54,4.01-.18.08-.3.25-.3.45Z"/>
    <path class="k" d="m190.19,34.03l8.81-3.82c.54-.23,1.14.16,1.14.75v37.25c0,.13-.1.23-.23.23h-9.98c-.13,0-.23-.1-.23-.23v-33.43c0-.32.19-.62.49-.75Z"/>
    <path class="l" d="m198.99,21.46l-8.69,3.82c-.29.13-.48.41-.49.73l-.08,3.42c-.01.6.59,1,1.14.77l8.78-3.81c.3-.13.49-.42.49-.75v-3.43c0-.59-.6-.98-1.14-.75Z"/>
  </g>
</svg>