<?xml version="1.0" encoding="UTF-8"?>
<svg fill="#777777" data-name="Layer 1" xmlns="http://www.w3.org/2000/svg" viewBox="0 0 232.94 233.4">
  <path d="m116.47,223.67c-4.59,0-9.51-1.73-15.97-5.61C34.7,176.47.04,130.54.04,85.11.04,42.14,31.09,9.73,72.28,9.73c17.02,0,32.49,5.74,44.23,16.1,11.8-10.36,27.24-16.1,44.15-16.1,41.18,0,72.24,32.41,72.24,75.38,0,45.44-34.66,91.36-100.23,132.81-6.25,3.89-11.52,5.76-16.2,5.76Zm1.13-24.67h0ZM72.28,34.5c-27.5,0-47.46,21.28-47.46,50.6,0,35.99,31.5,75.72,88.7,111.87,1.34.8,2.32,1.3,3,1.6.7-.32,1.7-.84,3-1.65,57.12-36.1,88.62-75.83,88.62-111.82,0-29.32-19.96-50.6-47.46-50.6-14.36,0-26.44,6.01-34.02,16.92l-10.25,14.75-10.14-14.82c-7.44-10.87-19.51-16.85-33.97-16.85Z"/>
</svg>