<?xml version="1.0" encoding="UTF-8"?>
<svg id="a" data-name="ThreadICons" xmlns="http://www.w3.org/2000/svg" viewBox="0 0 250 250">
  <defs>
    <style>
      .c {
        fill: #fff;
      }
    </style>
  </defs>
  <path id="b" data-name="Chat" class="c" d="m125,240.07c-63.45,0-115.07-51.62-115.07-115.07S61.55,9.93,125,9.93s115.07,51.62,115.07,115.07c0,18-4.04,35.24-12.01,51.24-.99,1.99-1.27,4.09-.79,5.91l6.32,23.63c2.12,7.93-.08,16.13-5.88,21.93-5.8,5.8-14.01,8.01-21.93,5.88l-23.63-6.32c-1.82-.48-3.91-.21-5.91.79h0c-16,7.97-33.24,12.01-51.24,12.01Zm0-212.3c-53.62,0-97.24,43.62-97.24,97.23s43.62,97.24,97.24,97.24c15.21,0,29.78-3.41,43.29-10.14h0c5.89-2.93,12.45-3.66,18.47-2.05l23.63,6.32c2.46.66,4.12-.66,4.72-1.26.6-.6,1.92-2.26,1.26-4.72l-6.32-23.63c-1.61-6.02-.88-12.58,2.05-18.47,6.73-13.51,10.14-28.07,10.14-43.29,0-53.62-43.62-97.23-97.23-97.23Z"/>
</svg>