<?xml version="1.0" encoding="UTF-8"?>
<svg  fill="#4d4d4d" data-name="Layer 1" xmlns="http://www.w3.org/2000/svg" viewBox="0 0 232.94 232.94">

  <path d="m118.06,232.94h-3.17c-37.66,0-56.55,0-72.98-8.38-14.53-7.4-26.13-19.01-33.54-33.54C0,174.6,0,155.7,0,118.05v-3.17c0-37.65,0-56.54,8.37-72.96C15.76,27.38,27.37,15.77,41.91,8.37,58.33,0,77.24,0,114.88,0c7.31,0,13.24,5.92,13.24,13.24s-5.92,13.24-13.24,13.24c-33.42,0-50.2,0-60.96,5.48-9.53,4.86-17.13,12.46-21.98,21.98-5.48,10.75-5.48,27.53-5.48,60.95v3.17c0,33.42,0,50.2,5.48,60.96,4.85,9.52,12.45,17.12,21.98,21.98,10.75,5.48,27.54,5.48,60.96,5.48h3.17c33.42,0,50.19,0,60.96-5.48,9.52-4.86,17.12-12.46,21.98-21.98,5.47-10.75,5.47-27.54,5.47-60.96,0-7.31,5.92-13.24,13.24-13.24s13.24,5.92,13.24,13.24c0,37.65,0,56.55-8.35,72.97-7.41,14.54-19.02,26.14-33.55,33.54-16.41,8.38-35.31,8.38-72.97,8.38Z"/>
  <path d="m124.41,121.77c-3.39,0-6.77-1.29-9.36-3.88-5.17-5.17-5.17-13.55,0-18.72L199.76,14.47c5.17-5.17,13.55-5.17,18.72,0,5.17,5.17,5.17,13.55,0,18.72l-84.71,84.71c-2.59,2.59-5.97,3.88-9.36,3.88Z"/>
</svg>