<?xml version="1.0" encoding="UTF-8"?>
<svg id="a" data-name="Layer 1" xmlns="http://www.w3.org/2000/svg" xmlns:xlink="http://www.w3.org/1999/xlink" viewBox="0 0 229.55 231.05">
  <defs>
    <style>
      .c {
        clip-path: url(#b);
      }

      .d {
        fill: #777777;
      }

      .e {
        fill: none;
      }
    </style>
    <clipPath id="b">
      <rect class="e" x="46.89" y="48.39" width="182.66" height="182.66" rx="48.35" ry="48.35"/>
    </clipPath>
  </defs>
  <path class="d" d="m3.94,95.2C.17,68.38-1.72,54.98,2.06,44c3.32-9.65,9.62-18.01,17.98-23.87,9.51-6.66,22.92-8.54,49.73-12.31l27.66-3.89c26.82-3.77,40.22-5.65,51.2-1.87,9.65,3.32,18.01,9.62,23.86,17.98,2.43,3.47,4.23,7.46,5.71,12.44-5.1-.14-10.77-.18-17.14-.2-.53-1.07-1.12-2.06-1.77-3-3.9-5.58-9.47-9.77-15.91-11.99-7.32-2.52-16.26-1.26-34.13,1.25l-46.82,6.58c-17.88,2.51-26.82,3.77-33.15,8.21-5.58,3.9-9.77,9.47-11.99,15.91-2.52,7.32-1.26,16.26,1.25,34.13l6.58,46.82c1.95,13.86,3.14,22.35,5.65,28.42,0,9.86.05,18.13.34,25.22-4.22-3.1-7.94-6.89-10.98-11.24-6.66-9.51-8.54-22.92-12.31-49.73l-3.89-27.66Z"/>
  <g class="c">
    <g>
      <path class="d" d="m181.2,231.05h-85.96c-26.66,0-48.35-21.69-48.35-48.35v-85.96c0-26.66,21.69-48.35,48.35-48.35h85.96c26.66,0,48.35,21.69,48.35,48.35v85.96c0,26.66-21.69,48.35-48.35,48.35ZM95.24,64.51c-17.77,0-32.23,14.46-32.23,32.23v85.96c0,17.77,14.46,32.23,32.23,32.23h85.96c17.77,0,32.23-14.46,32.23-32.23v-85.96c0-17.77-14.46-32.23-32.23-32.23h-85.96Z"/>
      <path class="d" d="m124.06,193.13c-4.54,0-9.09-1.65-12.71-4.96l-19.79-18.14c-3.19-2.92-8.08-2.82-11.14.24l-20.8,20.8-11.4-11.4,20.8-20.8c9.18-9.18,23.86-9.5,33.43-.73l19.79,18.14c1.06.97,2.69.94,3.72-.08l42.22-42.21c4.56-4.57,10.64-7.08,17.09-7.08s12.53,2.51,17.09,7.08l22.85,22.85-11.4,11.4-22.85-22.85c-3.14-3.14-8.25-3.14-11.4,0l-42.22,42.21c-3.67,3.67-8.48,5.52-13.3,5.52Z"/>
      <circle class="d" cx="97.93" cy="99.43" r="13.43"/>
    </g>
  </g>
</svg>