<?xml version="1.0" encoding="UTF-8"?>
<svg id="a" data-name="ThreadICons" xmlns="http://www.w3.org/2000/svg" viewBox="0 0 250 250">
  <defs>
    <style>
      .c {
        fill: #fff;
      }
    </style>
  </defs>
  <path id="b" data-name="Heart" class="c" d="m125,228.18c-1.8,0-4.52,0-22.31-10.87-9.14-5.59-23.02-14.72-37.18-26.52-36.21-30.14-55.36-61.94-55.36-91.94,0-37.2,28.8-77.04,71.67-77.04,19.43,0,33.53,7.56,43.19,15.91,9.65-8.35,23.76-15.91,43.19-15.91,42.87,0,71.67,39.83,71.67,77.04,0,30-19.14,61.8-55.36,91.94-14.17,11.79-28.04,20.93-37.18,26.52-17.79,10.87-20.51,10.87-22.31,10.87ZM81.81,41.43c-31.14,0-52.06,29.69-52.06,57.43,0,29.48,24.96,56.97,45.89,74.84,20.5,17.5,41.26,29.55,49.35,33.82,8.09-4.28,28.86-16.33,49.35-33.82,20.94-17.87,45.89-45.37,45.89-74.84,0-27.73-20.92-57.43-52.06-57.43-17.75,0-29.25,9-35.76,16.56-1.86,2.16-4.57,3.4-7.42,3.4h0c-2.85,0-5.56-1.24-7.42-3.4-6.51-7.55-18.01-16.56-35.76-16.56Z"/>
</svg>