<?xml version="1.0" encoding="UTF-8"?>
<svg fill="#4d4d4d" data-name="Layer 1" xmlns="http://www.w3.org/2000/svg" viewBox="0 0 232.94 232.94">
  <path d="m12.2,115.41v76.28c0,10.71,8.69,19.4,19.4,19.4h38.8c2.68,0,4.85-2.17,4.85-4.85v-46.07c0-22.77,18.46-41.22,41.22-41.22s41.22,18.46,41.22,41.22v46.07c0,2.68,2.17,4.85,4.85,4.85h38.8c10.71,0,19.4-8.68,19.4-19.4v-76.28c0-14.64-6.61-28.49-17.99-37.7l-55.77-45.14c-17.79-14.4-43.23-14.4-61.02,0l-55.77,45.14c-11.38,9.21-17.99,23.06-17.99,37.7Z"/>
  <path d="m201.34,223.21h-38.8c-9.36,0-16.97-7.61-16.97-16.97v-46.07c0-16.05-13.05-29.1-29.1-29.1s-29.1,13.05-29.1,29.1v46.07c0,9.36-7.61,16.97-16.97,16.97H31.6C14.22,223.21.08,209.07.08,191.69v-76.28c0-18.38,8.2-35.56,22.48-47.12l55.77-45.14c22.1-17.88,54.18-17.88,76.27,0l55.77,45.14c14.29,11.56,22.48,28.74,22.48,47.12v76.28c0,17.38-14.14,31.52-31.52,31.52Zm-31.52-24.25h31.52c4.01,0,7.27-3.26,7.27-7.27v-76.28c0-11.03-4.92-21.34-13.49-28.27l-55.77-45.14c-13.26-10.73-32.5-10.73-45.76,0l-55.77,45.14c-8.57,6.94-13.49,17.24-13.49,28.27v76.28c0,4.01,3.26,7.27,7.27,7.27h31.52v-38.8c0-29.42,23.93-53.35,53.35-53.35s53.35,23.93,53.35,53.35v38.8Z"/>
</svg>