<?xml version="1.0" encoding="UTF-8"?>
<svg data-name="Layer 1" fill="#4d4d4d" xmlns="http://www.w3.org/2000/svg" viewBox="0 0 232.94 232.94">
  <path  d="m12.17,115.45v76.3c0,10.72,8.69,19.4,19.4,19.4h10.35c.45,0,.84-.31.95-.75,5.19-21.79,24.15-50.19,73.59-50.19s68.4,28.4,73.59,50.19c.1.44.5.75.95.75h10.35c10.72,0,19.4-8.69,19.4-19.4v-76.3c0-14.64-6.61-28.5-17.99-37.71l-55.79-45.15c-17.8-14.4-43.24-14.4-61.04,0l-55.79,45.15c-11.38,9.21-17.99,23.07-17.99,37.71Zm147.96-8.6c0,24.11-19.55,43.66-43.66,43.66s-43.66-19.55-43.66-43.66,19.55-43.66,43.66-43.66,43.66,19.55,43.66,43.66Z"/>
  <path d="m202.78,77.74l7.63-9.43h0l-7.63,9.43Zm-55.79-45.15l-7.63,9.43h0l7.63-9.43Zm-61.04,0l-7.63-9.43h0l7.63,9.43Zm-55.79,45.15l7.63,9.43h0l-7.63-9.43Zm159.9,132.66l11.8-2.81-11.8,2.81Zm-165.76-18.65v-76.3H.04v76.3h24.26Zm7.28,7.28c-4.02,0-7.28-3.26-7.28-7.28H.04c0,17.41,14.12,31.53,31.53,31.53v-24.26Zm10.35,0h-10.35v24.26h10.35v-24.26Zm12.75,14.19c2.12-8.9,7.02-18.99,16.25-26.83,9.08-7.71,23.28-14.04,45.54-14.04v-24.26c-27.18,0-47.18,7.87-61.24,19.81-13.91,11.81-21.08,26.82-24.15,39.7l23.6,5.62Zm61.79-40.87c22.26,0,36.46,6.33,45.54,14.04,9.23,7.84,14.13,17.92,16.25,26.83l23.6-5.62c-3.07-12.88-10.24-27.89-24.15-39.7-14.06-11.94-34.06-19.81-61.24-19.81v24.26Zm84.89,26.68h-10.35v24.26h10.35v-24.26Zm7.28-7.28c0,4.02-3.26,7.28-7.28,7.28v24.26c17.41,0,31.53-14.12,31.53-31.53h-24.26Zm0-76.3v76.3h24.26v-76.3h-24.26Zm-13.49-28.28c8.54,6.91,13.49,17.3,13.49,28.28h24.26c0-18.3-8.27-35.62-22.49-47.14l-15.26,18.85Zm-55.79-45.15l55.79,45.15,15.26-18.85-55.79-45.15-15.26,18.85Zm-45.78,0c13.35-10.8,32.43-10.8,45.78,0l15.26-18.85c-22.25-18-54.05-18-76.29,0l15.26,18.85Zm-55.79,45.15l55.79-45.15-15.26-18.85-55.79,45.15,15.26,18.85Zm-13.49,28.28c0-10.98,4.96-21.37,13.49-28.28l-15.26-18.85C8.31,79.83.04,97.15.04,115.45h24.26Zm92.17,47.19c30.81,0,55.79-24.98,55.79-55.79h-24.26c0,17.41-14.12,31.53-31.53,31.53v24.26Zm-55.79-55.79c0,30.81,24.98,55.79,55.79,55.79v-24.26c-17.41,0-31.53-14.12-31.53-31.53h-24.26Zm55.79-55.79c-30.81,0-55.79,24.98-55.79,55.79h24.26c0-17.41,14.12-31.53,31.53-31.53v-24.26Zm55.79,55.79c0-30.81-24.98-55.79-55.79-55.79v24.26c17.41,0,31.53,14.12,31.53,31.53h24.26Zm6.01,106.36c1.41,5.92,6.69,10.07,12.75,10.07v-24.26c5.15,0,9.65,3.54,10.85,8.57l-23.6,5.62Zm-136.33,10.07c6.06,0,11.34-4.15,12.75-10.07l-23.6-5.62c1.2-5.03,5.7-8.57,10.85-8.57v24.26Z"/>
</svg>