<?xml version="1.0" encoding="UTF-8"?>
<svg fill="#777777" data-name="Layer 1" xmlns="http://www.w3.org/2000/svg" viewBox="0 0 232.94 233.4">
  <path d="m116.47,106.55c-29.38,0-53.28-23.9-53.28-53.28S87.09,0,116.47,0s53.28,23.9,53.28,53.28-23.9,53.28-53.28,53.28Zm0-81.18c-15.39,0-27.91,12.52-27.91,27.91s12.52,27.91,27.91,27.91,27.91-12.52,27.91-27.91-12.52-27.91-27.91-27.91Z"/>
  <path d="m184.91,233.4H48.14c-35.46,0-40.76-18.64-40.76-29.76,0-36.32,44.8-76.79,109.09-76.79s109.09,40.47,109.09,76.79c0,11.12-5.28,29.76-40.65,29.76Zm-68.44-81.18c-54.97,0-83.72,33.48-83.72,51.42,0,3.63,8.37,4.39,15.39,4.39h136.77c6.97,0,15.28-.76,15.28-4.39,0-17.95-28.75-51.42-83.72-51.42Z"/>
</svg>