<?xml version="1.0" encoding="UTF-8"?>
<svg id="a" data-name="Layer 1" xmlns="http://www.w3.org/2000/svg" viewBox="0 0 232.94 232.94">
  <defs>
    <style>
      .b {
        fill: #010101;
      }
    </style>
  </defs>
  <path class="b" d="m197.45,91.13c-5.59,0-10.12,4.53-10.12,10.12v42.8c-.02,18.27-14.83,33.08-33.1,33.1h-53.79l18.13-18.09c3.89-4.02,3.79-10.42-.23-14.31-3.92-3.8-10.14-3.8-14.07-.02l-35.47,35.38c-1.9,1.9-2.97,4.47-2.98,7.16h0c0,.24.12.44.13.67.05,2.46,1.08,4.8,2.84,6.51l35.45,35.47c4.02,3.88,10.43,3.77,14.31-.25,3.79-3.92,3.79-10.14,0-14.07l-18.19-18.2h53.84c29.45-.03,53.32-23.9,53.35-53.35v-42.8c0-5.59-4.53-10.12-10.12-10.12h.01Zm-64.89-35.39l-18.17,18.17c-4.02,3.88-4.13,10.29-.25,14.31,3.88,4.02,10.29,4.13,14.31.25.08-.08.17-.16.25-.25l35.43-35.43c3.96-3.96,3.96-10.38,0-14.34L128.71,3.02c-4.02-3.88-10.43-3.77-14.31.25-3.79,3.92-3.79,10.14,0,14.07l18.16,18.16h-53.83c-29.45.04-53.31,23.9-53.35,53.35v42.81c0,5.59,4.53,10.12,10.12,10.12s10.12-4.53,10.12-10.12v-42.81c.03-18.27,14.84-33.08,33.11-33.1h53.83Z"/>
</svg>