<?xml version="1.0" encoding="UTF-8"?>
<svg id="a" data-name="ThreadICons" xmlns="http://www.w3.org/2000/svg" viewBox="0 0 250 250">
  <defs>
    <style>
      .c {
        fill: #fff;
      }
    </style>
  </defs>
  <path id="b" data-name="Repost" class="c" d="m205.08,99.94c-5.53,0-10.01,4.48-10.01,10.01v42.32c-.02,18.07-14.66,32.71-32.73,32.73h-53.19l17.93-17.89c3.85-3.98,3.75-10.3-.23-14.15-3.88-3.76-10.03-3.76-13.91-.02l-35.07,34.99c-1.88,1.88-2.94,4.42-2.95,7.08h0c0,.24.12.44.13.66.05,2.43,1.07,4.75,2.81,6.44l35.05,35.07c3.98,3.84,10.31,3.73,14.15-.25,3.75-3.88,3.75-10.03,0-13.91l-17.99-18h53.24c29.12-.03,52.72-23.63,52.75-52.75v-42.32c0-5.53-4.48-10.01-10.01-10.01h.02Zm-64.17-34.99l-17.97,17.97c-3.98,3.84-4.08,10.18-.25,14.15s10.18,4.08,14.15.25c.08-.08.17-.16.25-.25l35.03-35.03c3.92-3.92,3.92-10.26,0-14.18l-35.02-35.03c-3.98-3.84-10.31-3.73-14.15.25-3.75,3.88-3.75,10.03,0,13.91l17.96,17.96h-53.23c-29.12.04-52.71,23.63-52.75,52.75v42.33c0,5.53,4.48,10.01,10.01,10.01s10.01-4.48,10.01-10.01v-42.33c.03-18.07,14.67-32.71,32.74-32.73h53.23,0Z"/>
</svg>