<?xml version="1.0" encoding="UTF-8"?>
<svg data-name="Layer 1"  fill="#4d4d4d" xmlns="http://www.w3.org/2000/svg" viewBox="0 0 232.94 232.94">

  <path d="m24.78,104.08c0-43.8,35.5-79.3,79.3-79.3s79.3,35.5,79.3,79.3-35.5,79.3-79.3,79.3S24.78,147.88,24.78,104.08ZM104.08,0C46.6,0,0,46.6,0,104.08s46.6,104.08,104.08,104.08c24.28,0,46.61-8.31,64.32-22.24l43.39,43.4c4.84,4.84,12.68,4.84,17.52,0,4.84-4.84,4.84-12.68,0-17.52l-43.4-43.39c13.93-17.7,22.24-40.04,22.24-64.32C208.16,46.6,161.56,0,104.08,0Z"/>
</svg>