<?xml version="1.0" encoding="UTF-8"?>
<svg id="a" data-name="ThreadICons" xmlns="http://www.w3.org/2000/svg" viewBox="0 0 250 250">
  <defs>
    <style>
      .c {
        fill: #fff;
      }
    </style>
  </defs>
  <g id="b" data-name="Share">
    <path class="c" d="m121.81,225.8c-.45,0-.91-.03-1.37-.1-3.69-.56-6.68-3.29-7.56-6.92l-25.6-105.8L12.86,39.94c-2.66-2.61-3.48-6.58-2.07-10.03s4.77-5.71,8.5-5.71h211.42c3.3,0,6.35,1.77,7.98,4.64,1.63,2.87,1.6,6.4-.09,9.24l-108.9,183.22c-1.67,2.81-4.69,4.49-7.89,4.49ZM41.77,42.57l60.26,59.13c1.23,1.2,2.09,2.73,2.49,4.4l20.91,86.43L214.56,42.57H41.77Z"/>
    <path class="c" d="m95.98,113.86c-1.93,0-3.8-1.02-4.8-2.82-1.47-2.65-.52-5.99,2.13-7.46l121.12-67.3c2.65-1.47,5.99-.52,7.46,2.13,1.47,2.65.52,5.99-2.13,7.46l-121.12,67.3c-.84.47-1.76.69-2.66.69Z"/>
  </g>
</svg>